<?xml version="1.0" encoding="UTF-8" standalone="no"?>
<!DOCTYPE svg PUBLIC "-//W3C//DTD SVG 20010904//EN"
              "http://www.w3.org/TR/2001/REC-SVG-20010904/DTD/svg10.dtd">

<svg xmlns="http://www.w3.org/2000/svg"
     width="182.88mm" height="183.05mm"
     viewBox="0 0 2160 2162">
  <path id="Selecció"
        fill="black" stroke="black" stroke-width="1"
        d="M 160.00,3.00
           C 160.00,3.00 160.00,4.00 160.00,4.00
             160.00,4.00 161.00,3.00 161.00,3.00
             161.00,3.00 160.00,3.00 160.00,3.00 Z
           M 837.00,53.00
           C 837.00,53.00 829.00,59.00 829.00,59.00
             824.38,56.49 819.38,61.54 815.58,64.15
             815.58,64.15 797.00,76.12 797.00,76.12
             791.66,79.35 786.00,82.72 784.00,89.00
             784.00,89.00 779.00,88.00 779.00,88.00
             777.02,97.19 769.96,100.46 763.97,107.56
             759.03,113.42 753.75,123.16 749.78,130.00
             746.96,134.85 745.96,138.89 741.00,142.00
             741.00,142.00 740.00,149.00 740.00,149.00
             742.00,152.61 736.88,159.09 736.03,163.09
             736.03,163.09 729.77,191.00 729.77,191.00
             728.55,197.38 728.79,204.15 726.00,210.00
             726.00,210.00 726.00,215.00 726.00,215.00
             727.93,219.26 727.42,233.51 727.76,239.00
             727.76,239.00 731.75,261.00 731.75,261.00
             732.43,265.95 735.11,276.91 739.00,280.00
             738.29,285.31 741.59,291.08 746.00,294.00
             745.55,299.43 747.57,302.05 752.00,305.00
             752.00,305.00 751.00,309.00 751.00,309.00
             761.34,318.12 764.79,331.66 774.00,333.00
             774.00,333.00 775.00,338.00 775.00,338.00
             775.00,338.00 778.00,337.00 778.00,337.00
             780.79,345.33 792.79,351.31 799.91,355.40
             803.58,357.50 804.21,359.20 809.00,361.32
             813.28,363.21 819.29,363.39 822.14,367.34
             824.28,370.29 823.37,374.18 823.22,377.58
             823.22,377.58 819.00,404.00 819.00,404.00
             819.00,404.00 818.00,402.00 818.00,402.00
             818.00,402.00 815.65,419.72 815.65,419.72
             815.65,419.72 817.00,429.00 817.00,429.00
             820.74,430.06 820.22,433.64 821.94,436.58
             824.10,440.29 826.52,440.95 829.00,446.00
             829.00,446.00 834.00,445.00 834.00,445.00
             834.00,445.00 836.27,447.28 836.27,447.28
             836.27,447.28 847.00,449.70 847.00,449.70
             847.00,449.70 848.00,448.00 848.00,448.00
             848.00,448.00 859.00,453.00 859.00,453.00
             859.00,453.00 859.00,451.00 859.00,451.00
             859.00,451.00 868.58,452.98 868.58,452.98
             868.58,452.98 875.00,454.87 875.00,454.87
             875.00,454.87 889.00,457.16 889.00,457.16
             889.00,457.16 900.00,459.00 900.00,459.00
             900.00,461.93 901.10,467.59 898.00,469.00
             899.75,476.23 897.75,483.67 897.25,491.00
             897.25,491.00 895.00,525.00 895.00,525.00
             897.53,528.46 896.74,534.53 897.24,539.17
             897.24,539.17 902.00,565.00 902.00,565.00
             902.00,565.00 913.00,589.00 913.00,589.00
             913.00,589.00 909.00,588.00 909.00,588.00
             908.23,592.22 905.29,597.62 901.00,599.00
             900.55,603.38 894.14,611.74 890.00,613.00
             890.00,613.00 889.00,620.00 889.00,620.00
             889.00,620.00 886.00,618.00 886.00,618.00
             885.17,620.85 885.05,623.90 882.00,625.00
             881.62,629.23 872.72,642.73 869.00,644.00
             869.07,649.41 864.92,653.90 862.29,658.42
             860.89,660.82 860.68,662.97 858.00,664.00
             858.00,664.00 859.00,666.00 859.00,666.00
             859.00,666.00 856.00,665.00 856.00,665.00
             856.00,665.00 858.00,669.00 858.00,669.00
             858.00,669.00 854.00,670.00 854.00,670.00
             854.19,676.42 850.70,680.11 847.00,685.00
             847.00,685.00 846.00,692.00 846.00,692.00
             846.00,692.00 845.00,693.00 845.00,693.00
             845.00,693.00 843.00,692.00 843.00,692.00
             843.00,692.00 841.00,702.00 841.00,702.00
             841.00,702.00 839.00,701.00 839.00,701.00
             839.00,701.00 835.00,717.00 835.00,717.00
             835.00,717.00 834.00,715.00 834.00,715.00
             834.00,715.00 831.00,721.00 831.00,721.00
             831.20,726.02 830.68,726.62 827.00,730.00
             827.00,730.00 827.00,734.00 827.00,734.00
             827.00,734.00 828.00,734.00 828.00,734.00
             828.00,734.00 828.00,732.00 828.00,732.00
             827.46,736.96 825.17,741.43 823.82,746.15
             822.38,751.20 824.59,751.60 820.00,756.00
             820.54,759.66 821.24,760.76 818.00,763.00
             819.01,766.49 818.98,769.91 817.00,773.00
             817.00,773.00 818.00,779.00 818.00,779.00
             818.00,779.00 817.00,777.00 817.00,777.00
             817.00,777.00 815.00,781.00 815.00,781.00
             815.21,784.41 815.75,788.64 812.00,790.00
             812.00,790.00 812.00,795.00 812.00,795.00
             814.02,806.01 810.30,811.72 810.63,818.00
             811.27,830.25 808.52,833.37 808.00,841.00
             808.00,841.00 805.00,844.00 805.00,844.00
             805.00,844.00 801.00,844.00 801.00,844.00
             801.00,844.00 802.00,847.00 802.00,847.00
             802.00,847.00 800.00,846.00 800.00,846.00
             800.00,846.00 800.00,845.00 800.00,845.00
             800.00,845.00 796.00,846.00 796.00,846.00
             795.56,849.39 795.34,849.43 792.00,850.00
             788.57,854.27 781.58,859.91 776.00,860.00
             772.53,863.94 765.39,869.58 760.00,869.00
             758.80,872.78 755.53,872.68 752.00,873.00
             752.00,873.00 753.00,876.00 753.00,876.00
             746.18,877.61 737.28,881.54 734.00,888.16
             732.46,887.97 731.56,887.76 730.00,888.16
             727.91,889.07 725.90,891.06 724.00,892.31
             719.35,895.38 716.43,895.79 713.00,901.00
             713.00,901.00 711.00,900.00 711.00,900.00
             711.00,900.00 710.00,903.00 710.00,903.00
             710.00,903.00 696.00,905.06 696.00,905.06
             696.00,905.06 675.00,904.00 675.00,904.00
             675.00,904.00 674.00,901.18 674.00,901.18
             670.50,902.71 669.52,901.58 665.76,901.18
             665.76,901.18 649.00,900.23 649.00,900.23
             645.69,900.05 641.76,897.75 639.00,900.23
             630.25,894.01 631.81,901.63 622.00,895.00
             622.00,895.00 622.00,899.00 622.00,899.00
             622.00,899.00 621.00,900.00 621.00,900.00
             621.00,900.00 616.00,896.00 616.00,896.00
             616.00,896.00 584.00,897.83 584.00,897.83
             584.00,897.83 570.00,897.83 570.00,897.83
             570.00,897.83 569.00,901.00 569.00,901.00
             569.00,901.00 568.00,898.00 568.00,898.00
             560.27,898.00 559.01,897.12 552.00,901.00
             552.00,901.00 552.00,897.00 552.00,897.00
             552.00,897.00 550.00,897.00 550.00,897.00
             550.00,897.00 550.00,901.00 550.00,901.00
             545.30,900.22 539.29,898.41 537.00,904.00
             526.62,897.95 522.72,907.82 509.00,906.00
             509.00,906.00 508.00,909.00 508.00,909.00
             508.00,909.00 506.00,907.00 506.00,907.00
             506.00,907.00 491.96,910.61 491.96,910.61
             491.96,910.61 484.00,912.56 484.00,912.56
             484.00,912.56 477.00,913.26 477.00,913.26
             477.00,913.26 469.00,915.00 469.00,915.00
             469.00,915.00 469.00,918.00 469.00,918.00
             469.00,918.00 465.00,915.00 465.00,915.00
             465.00,915.00 465.00,923.00 465.00,923.00
             465.00,923.00 463.00,917.00 463.00,917.00
             463.00,917.00 459.00,920.00 459.00,920.00
             459.00,920.00 459.00,916.00 459.00,916.00
             457.32,918.00 456.77,919.67 454.00,919.00
             454.00,919.00 452.00,923.00 452.00,923.00
             452.00,923.00 449.00,921.00 449.00,921.00
             449.00,921.00 449.00,925.00 449.00,925.00
             449.00,925.00 447.00,924.00 447.00,924.00
             447.00,924.00 447.00,923.00 447.00,923.00
             447.00,923.00 445.00,923.00 445.00,923.00
             441.49,925.58 439.18,925.00 435.00,925.00
             431.48,931.91 425.72,931.08 419.00,936.00
             419.00,936.00 419.00,932.00 419.00,932.00
             419.00,932.00 417.00,936.00 417.00,936.00
             414.01,934.16 414.13,934.49 411.00,936.00
             411.00,936.00 413.00,939.00 413.00,939.00
             405.32,937.83 406.84,940.99 401.96,941.95
             400.61,942.22 390.67,941.54 389.00,941.00
             389.00,941.00 388.00,944.00 388.00,944.00
             388.00,944.00 386.00,942.00 386.00,942.00
             386.00,942.00 384.00,944.00 384.00,944.00
             384.00,944.00 381.00,938.00 381.00,938.00
             381.00,938.00 377.00,941.00 377.00,941.00
             377.16,934.63 374.26,935.83 369.00,930.00
             369.00,930.00 365.00,932.00 365.00,932.00
             364.57,931.36 364.66,930.84 363.46,930.01
             364.82,930.95 349.87,925.20 351.00,925.47
             347.82,924.72 345.58,926.25 344.00,923.00
             344.00,923.00 342.00,926.00 342.00,926.00
             342.00,926.00 341.00,923.00 341.00,923.00
             341.00,923.00 337.00,924.00 337.00,924.00
             337.00,924.00 337.00,922.00 337.00,922.00
             337.00,922.00 331.00,920.00 331.00,920.00
             331.00,920.00 332.00,925.00 332.00,925.00
             332.00,925.00 322.00,917.00 322.00,917.00
             322.00,917.00 320.00,915.00 320.00,915.00
             320.00,915.00 321.00,911.00 321.00,911.00
             321.00,911.00 318.00,913.00 318.00,913.00
             318.00,913.00 312.00,908.00 312.00,908.00
             312.00,908.00 316.00,906.00 316.00,906.00
             310.26,903.72 307.32,906.95 304.00,902.00
             300.64,902.90 300.73,903.18 298.00,901.00
             298.00,901.00 295.00,902.00 295.00,902.00
             290.19,894.97 289.66,901.55 279.00,899.00
             279.00,899.00 275.00,904.00 275.00,904.00
             270.68,896.36 268.52,903.83 263.00,899.00
             263.00,899.00 268.00,898.00 268.00,898.00
             265.12,895.91 264.38,896.17 261.00,897.00
             261.00,897.00 264.00,893.00 264.00,893.00
             264.00,893.00 262.00,889.00 262.00,889.00
             262.00,889.00 261.00,893.00 261.00,893.00
             261.00,893.00 255.00,893.00 255.00,893.00
             255.00,893.00 256.00,882.00 256.00,882.00
             256.00,882.00 258.00,887.00 258.00,887.00
             258.00,887.00 261.00,877.00 261.00,877.00
             261.00,877.00 259.63,874.78 259.63,874.78
             259.63,874.78 259.00,861.00 259.00,861.00
             259.00,861.00 257.00,861.00 257.00,861.00
             257.00,861.00 257.00,865.00 257.00,865.00
             257.00,865.00 252.66,854.00 252.66,854.00
             250.32,847.01 249.07,837.72 240.00,837.00
             240.00,837.00 240.00,833.00 240.00,833.00
             240.00,833.00 237.00,835.00 237.00,835.00
             235.81,832.04 236.01,832.08 233.00,831.00
             233.00,831.00 233.00,830.00 233.00,830.00
             233.00,830.00 235.00,829.00 235.00,829.00
             235.00,829.00 234.00,826.00 234.00,826.00
             234.00,826.00 224.00,825.00 224.00,825.00
             224.00,825.00 221.00,829.00 221.00,829.00
             221.00,829.00 223.00,819.00 223.00,819.00
             216.40,817.31 217.28,818.25 211.00,820.00
             211.00,820.00 208.00,817.00 208.00,817.00
             208.00,817.00 209.00,810.00 209.00,810.00
             205.33,811.66 200.97,815.33 197.11,812.63
             195.25,811.34 195.47,810.80 196.00,809.00
             192.42,808.27 191.47,809.58 189.00,812.00
             189.00,812.00 192.00,806.00 192.00,806.00
             188.90,807.47 187.40,809.02 185.00,806.00
             185.00,806.00 180.00,810.00 180.00,810.00
             180.00,810.00 179.00,805.00 179.00,805.00
             179.00,805.00 176.00,807.00 176.00,807.00
             176.00,807.00 162.17,805.14 162.17,805.14
             162.17,805.14 152.00,804.00 152.00,804.00
             152.00,804.00 152.00,800.00 152.00,800.00
             147.95,801.31 148.11,801.48 144.00,800.00
             144.00,800.00 144.00,807.00 144.00,807.00
             140.83,805.54 138.66,804.09 136.00,807.00
             130.67,803.41 127.85,801.36 126.00,809.00
             126.00,809.00 125.00,806.00 125.00,806.00
             125.00,806.00 121.00,806.00 121.00,806.00
             121.00,806.00 119.00,802.00 119.00,802.00
             119.00,802.00 120.00,806.00 120.00,806.00
             120.00,806.00 110.00,807.00 110.00,807.00
             110.00,807.00 111.00,809.00 111.00,809.00
             111.00,809.00 99.00,810.00 99.00,810.00
             99.00,810.00 99.00,813.00 99.00,813.00
             92.85,809.78 91.39,811.43 91.00,818.00
             86.43,813.29 86.45,815.90 81.01,816.46
             78.63,816.71 75.66,815.63 77.00,819.00
             77.00,819.00 73.00,820.00 73.00,820.00
             73.00,820.00 73.00,818.00 73.00,818.00
             73.00,818.00 71.00,818.00 71.00,818.00
             71.00,818.00 70.00,823.00 70.00,823.00
             70.00,823.00 68.00,820.00 68.00,820.00
             68.00,820.00 67.00,826.00 67.00,826.00
             67.00,826.00 57.00,827.00 57.00,827.00
             57.00,827.00 57.00,831.00 57.00,831.00
             57.00,831.00 55.00,829.00 55.00,829.00
             55.00,829.00 52.00,830.00 52.00,830.00
             52.00,830.00 49.00,835.00 49.00,835.00
             49.00,835.00 43.00,843.00 43.00,843.00
             43.00,843.00 45.00,838.00 45.00,838.00
             45.00,838.00 40.00,837.00 40.00,837.00
             40.00,837.00 40.00,844.00 40.00,844.00
             40.00,844.00 43.00,843.00 43.00,843.00
             43.00,843.00 35.00,846.00 35.00,846.00
             34.84,853.17 31.50,850.00 28.00,854.00
             28.00,854.00 32.00,853.00 32.00,853.00
             32.00,853.00 26.00,859.00 26.00,859.00
             26.06,863.27 26.14,866.57 21.00,865.00
             21.00,865.00 24.00,870.00 24.00,870.00
             24.00,870.00 19.00,870.00 19.00,870.00
             19.00,870.00 18.00,871.00 18.00,871.00
             18.00,871.00 20.00,887.00 20.00,887.00
             20.00,887.00 16.00,887.00 16.00,887.00
             16.62,890.54 16.58,890.80 20.00,892.00
             20.00,892.00 16.00,893.00 16.00,893.00
             16.97,897.46 17.67,899.77 21.00,903.00
             18.65,906.45 19.06,907.63 23.00,909.00
             23.00,909.00 15.00,914.00 15.00,914.00
             15.00,914.00 21.00,916.00 21.00,916.00
             21.00,916.00 22.00,911.00 22.00,911.00
             22.00,911.00 24.00,917.00 24.00,917.00
             24.00,917.00 30.00,917.00 30.00,917.00
             30.00,917.00 32.00,923.00 32.00,923.00
             32.00,923.00 28.00,922.00 28.00,922.00
             28.00,922.00 27.00,929.00 27.00,929.00
             27.00,929.00 32.00,924.00 32.00,924.00
             32.00,924.00 36.00,925.00 36.00,925.00
             36.00,925.00 37.00,930.00 37.00,930.00
             37.00,930.00 38.00,930.00 38.00,930.00
             38.00,930.00 40.00,928.00 40.00,928.00
             40.00,928.00 42.00,937.00 42.00,937.00
             42.00,937.00 51.00,936.00 51.00,936.00
             51.00,936.00 50.00,941.00 50.00,941.00
             50.00,941.00 55.00,940.00 55.00,940.00
             55.00,940.00 53.00,942.00 53.00,942.00
             53.00,942.00 54.00,943.00 54.00,943.00
             54.00,943.00 55.00,943.00 55.00,943.00
             55.00,943.00 55.00,941.00 55.00,941.00
             59.49,947.42 62.08,946.17 69.00,946.00
             69.00,946.00 67.00,949.00 67.00,949.00
             67.00,949.00 71.00,949.00 71.00,949.00
             71.00,949.00 71.00,953.00 71.00,953.00
             71.00,953.00 77.00,949.00 77.00,949.00
             77.00,949.00 80.00,954.00 80.00,954.00
             80.00,954.00 92.00,960.00 92.00,960.00
             92.00,960.00 91.00,957.00 91.00,957.00
             91.00,957.00 104.00,957.00 104.00,957.00
             104.00,957.00 104.00,959.00 104.00,959.00
             104.00,959.00 109.00,962.00 109.00,962.00
             114.99,961.64 121.74,964.17 127.00,967.00
             131.93,964.32 132.26,965.86 137.00,968.00
             137.00,968.00 136.00,974.00 136.00,974.00
             136.00,974.00 137.00,974.00 137.00,974.00
             137.00,974.00 139.00,972.00 139.00,972.00
             139.00,972.00 138.00,977.00 138.00,977.00
             138.00,977.00 143.00,975.00 143.00,975.00
             144.18,980.52 144.66,980.56 148.00,985.00
             148.00,985.00 154.00,981.00 154.00,981.00
             154.00,981.00 154.00,986.00 154.00,986.00
             154.00,986.00 158.00,984.00 158.00,984.00
             158.00,984.00 159.00,989.00 159.00,989.00
             159.00,989.00 160.00,986.00 160.00,986.00
             160.00,986.00 163.00,987.00 163.00,987.00
             163.00,987.00 161.00,991.00 161.00,991.00
             164.82,990.69 167.04,991.18 168.00,987.00
             168.00,987.00 172.00,986.00 172.00,986.00
             172.00,986.00 171.00,990.00 171.00,990.00
             171.00,990.00 180.00,991.00 180.00,991.00
             180.00,991.00 178.00,988.00 178.00,988.00
             178.00,988.00 179.00,988.00 179.00,988.00
             179.00,988.00 181.00,986.00 181.00,986.00
             181.00,986.00 183.00,991.00 183.00,991.00
             185.93,989.36 194.34,987.89 197.66,988.29
             197.66,988.29 201.09,988.92 201.09,988.92
             204.03,988.96 204.96,988.08 208.00,988.92
             214.26,985.31 213.32,988.95 221.00,992.00
             221.00,992.00 220.00,994.00 220.00,994.00
             220.00,994.00 223.00,995.00 223.00,995.00
             223.00,995.00 223.00,993.00 223.00,993.00
             223.00,993.00 227.00,997.00 227.00,997.00
             227.00,997.00 226.00,997.00 226.00,997.00
             226.00,997.00 225.00,995.00 225.00,995.00
             224.48,997.33 224.88,997.17 227.00,998.00
             227.00,998.00 225.00,1000.00 225.00,1000.00
             225.00,1000.00 225.00,1001.00 225.00,1001.00
             225.00,1001.00 229.00,1001.00 229.00,1001.00
             229.00,1001.00 227.00,1003.00 227.00,1003.00
             227.00,1003.00 227.00,1004.00 227.00,1004.00
             227.00,1004.00 230.59,1005.72 230.59,1005.72
             230.59,1005.72 240.00,1020.00 240.00,1020.00
             240.00,1020.00 242.00,1020.00 242.00,1020.00
             242.00,1020.00 246.00,1017.00 246.00,1017.00
             246.00,1017.00 244.00,1021.00 244.00,1021.00
             244.00,1021.00 248.00,1020.00 248.00,1020.00
             248.00,1020.00 245.00,1026.00 245.00,1026.00
             245.00,1026.00 252.00,1020.00 252.00,1020.00
             252.00,1020.00 254.00,1031.00 254.00,1031.00
             254.00,1031.00 257.00,1030.00 257.00,1030.00
             257.00,1030.00 259.00,1037.00 259.00,1037.00
             259.00,1037.00 262.00,1033.00 262.00,1033.00
             262.00,1033.00 263.56,1039.72 263.56,1039.72
             265.27,1044.91 266.96,1041.60 267.00,1053.00
             267.00,1053.00 264.00,1053.00 264.00,1053.00
             264.00,1053.00 265.00,1062.00 265.00,1062.00
             265.00,1062.00 261.00,1061.00 261.00,1061.00
             259.66,1065.49 258.16,1066.94 254.00,1069.00
             254.00,1069.00 251.00,1082.00 251.00,1082.00
             251.00,1082.00 248.00,1081.00 248.00,1081.00
             248.00,1081.00 249.00,1084.00 249.00,1084.00
             249.00,1084.00 247.00,1082.00 247.00,1082.00
             247.00,1082.00 246.00,1082.00 246.00,1082.00
             246.00,1082.00 245.00,1086.00 245.00,1086.00
             247.85,1088.05 247.11,1088.56 245.00,1091.00
             245.00,1091.00 240.00,1088.00 240.00,1088.00
             240.00,1088.00 245.00,1097.00 245.00,1097.00
             245.00,1097.00 242.00,1096.00 242.00,1096.00
             242.00,1096.00 237.00,1101.00 237.00,1101.00
             236.49,1105.36 236.27,1106.03 233.00,1109.00
             233.00,1109.00 234.00,1112.00 234.00,1112.00
             234.00,1112.00 230.00,1113.00 230.00,1113.00
             230.00,1113.00 236.00,1114.00 236.00,1114.00
             229.66,1119.26 227.34,1116.65 230.00,1128.00
             230.00,1128.00 225.00,1127.00 225.00,1127.00
             225.00,1127.00 229.00,1133.00 229.00,1133.00
             229.00,1133.00 233.00,1131.00 233.00,1131.00
             230.93,1133.07 225.97,1136.72 224.00,1133.00
             224.00,1133.00 222.00,1143.00 222.00,1143.00
             222.00,1143.00 221.00,1141.00 221.00,1141.00
             221.00,1141.00 218.00,1153.00 218.00,1153.00
             217.88,1160.20 215.24,1158.19 213.03,1162.26
             211.52,1165.05 212.47,1171.39 214.00,1174.00
             210.15,1178.11 210.85,1180.00 205.00,1181.00
             205.00,1181.00 205.00,1189.00 205.00,1189.00
             205.00,1189.00 208.00,1189.00 208.00,1189.00
             208.00,1189.00 209.00,1197.00 209.00,1197.00
             209.00,1197.00 207.00,1197.00 207.00,1197.00
             207.00,1197.00 208.00,1213.00 208.00,1213.00
             208.00,1213.00 204.00,1213.00 204.00,1213.00
             204.00,1213.00 208.00,1215.00 208.00,1215.00
             208.00,1215.00 207.00,1218.00 207.00,1218.00
             207.00,1218.00 201.00,1216.00 201.00,1216.00
             201.00,1216.00 207.00,1225.00 207.00,1225.00
             207.00,1225.00 200.00,1227.00 200.00,1227.00
             200.00,1227.00 200.00,1232.00 200.00,1232.00
             200.00,1232.00 201.00,1229.00 201.00,1229.00
             201.00,1229.00 208.00,1229.00 208.00,1229.00
             208.00,1229.00 206.00,1236.00 206.00,1236.00
             206.00,1236.00 202.98,1235.00 202.98,1235.00
             199.24,1242.32 203.91,1243.68 202.98,1252.00
             202.50,1256.16 200.04,1258.23 204.00,1260.00
             204.00,1260.00 201.00,1261.00 201.00,1261.00
             201.00,1261.00 203.00,1265.00 203.00,1265.00
             203.00,1265.00 201.00,1264.00 201.00,1264.00
             201.00,1264.00 201.00,1263.00 201.00,1263.00
             201.00,1263.00 200.00,1272.00 200.00,1272.00
             200.00,1272.00 205.00,1270.00 205.00,1270.00
             205.00,1275.47 206.20,1273.88 207.01,1277.28
             208.05,1281.47 202.60,1287.59 207.01,1294.00
             207.01,1294.00 204.00,1295.00 204.00,1295.00
             204.00,1295.00 210.00,1297.00 210.00,1297.00
             210.00,1297.00 210.00,1301.00 210.00,1301.00
             210.00,1301.00 208.00,1298.00 208.00,1298.00
             208.00,1298.00 204.00,1303.00 204.00,1303.00
             204.00,1303.00 216.00,1309.00 216.00,1309.00
             216.00,1309.00 208.00,1309.00 208.00,1309.00
             208.00,1309.00 213.00,1312.00 213.00,1312.00
             213.00,1312.00 210.00,1313.00 210.00,1313.00
             210.00,1313.00 211.00,1325.00 211.00,1325.00
             213.00,1325.33 214.81,1325.40 216.30,1327.31
             217.27,1329.17 216.66,1332.82 216.30,1335.00
             216.14,1342.46 219.08,1346.57 213.00,1350.00
             213.00,1350.00 219.00,1349.00 219.00,1349.00
             219.00,1349.00 218.00,1353.00 218.00,1353.00
             218.00,1353.00 222.00,1352.00 222.00,1352.00
             225.24,1359.79 226.75,1359.64 220.00,1366.00
             224.86,1370.72 228.25,1368.43 229.00,1376.00
             239.58,1379.18 230.97,1385.00 240.00,1388.00
             240.11,1392.88 242.46,1401.54 244.56,1405.86
             245.96,1408.75 247.79,1408.73 249.12,1410.54
             250.88,1412.93 250.29,1417.21 250.00,1420.00
             250.00,1420.00 255.00,1421.00 255.00,1421.00
             255.00,1421.00 253.00,1419.00 253.00,1419.00
             253.00,1419.00 256.00,1418.00 256.00,1418.00
             256.00,1418.00 253.00,1429.00 253.00,1429.00
             253.00,1429.00 257.00,1430.00 257.00,1430.00
             257.00,1430.00 257.00,1426.00 257.00,1426.00
             257.00,1426.00 261.00,1429.00 261.00,1429.00
             261.00,1429.00 261.00,1425.00 261.00,1425.00
             261.00,1425.00 264.00,1429.00 264.00,1429.00
             264.00,1429.00 259.00,1431.00 259.00,1431.00
             259.00,1431.00 264.00,1430.00 264.00,1430.00
             264.00,1430.00 263.00,1433.00 263.00,1433.00
             271.96,1435.48 268.53,1446.55 277.00,1448.00
             277.00,1448.00 277.00,1453.00 277.00,1453.00
             286.98,1453.73 288.73,1461.34 292.00,1469.00
             292.00,1469.00 295.00,1469.00 295.00,1469.00
             295.00,1469.00 297.00,1461.00 297.00,1461.00
             297.00,1461.00 299.00,1461.00 299.00,1461.00
             299.00,1461.00 300.18,1473.69 300.18,1473.69
             300.18,1473.69 309.58,1478.85 309.58,1478.85
             309.58,1478.85 311.00,1477.00 311.00,1477.00
             313.59,1481.53 314.58,1484.10 320.00,1485.00
             320.00,1485.00 320.00,1489.00 320.00,1489.00
             324.28,1489.82 325.74,1490.13 328.00,1494.00
             328.00,1494.00 324.00,1493.00 324.00,1493.00
             324.00,1493.00 329.00,1498.00 329.00,1498.00
             329.00,1498.00 329.00,1493.00 329.00,1493.00
             329.00,1493.00 331.00,1497.00 331.00,1497.00
             331.00,1497.00 333.00,1497.00 333.00,1497.00
             333.00,1497.00 334.00,1493.00 334.00,1493.00
             334.00,1493.00 336.00,1500.00 336.00,1500.00
             336.00,1500.00 336.00,1496.00 336.00,1496.00
             336.00,1496.00 342.00,1505.00 342.00,1505.00
             342.00,1505.00 342.00,1499.00 342.00,1499.00
             342.00,1499.00 346.00,1501.00 346.00,1501.00
             346.00,1501.00 344.00,1502.00 344.00,1502.00
             344.00,1502.00 349.00,1504.00 349.00,1504.00
             349.00,1504.00 348.00,1506.00 348.00,1506.00
             348.00,1506.00 354.00,1510.00 354.00,1510.00
             354.00,1510.00 356.00,1509.00 356.00,1509.00
             356.00,1509.00 360.00,1520.00 360.00,1520.00
             367.77,1518.37 365.85,1521.62 371.00,1525.00
             371.00,1525.00 372.00,1521.00 372.00,1521.00
             372.00,1521.00 373.00,1525.00 373.00,1525.00
             373.00,1525.00 373.00,1517.00 373.00,1517.00
             373.00,1517.00 375.00,1521.00 375.00,1521.00
             375.00,1521.00 380.00,1523.00 380.00,1523.00
             380.00,1523.00 379.00,1530.00 379.00,1530.00
             379.00,1530.00 384.00,1525.00 384.00,1525.00
             384.00,1525.00 383.00,1528.00 383.00,1528.00
             387.45,1527.55 394.38,1528.32 398.00,1531.00
             393.27,1530.61 392.37,1531.53 391.00,1536.00
             391.00,1536.00 396.00,1532.00 396.00,1532.00
             396.00,1532.00 394.00,1539.00 394.00,1539.00
             394.00,1539.00 399.00,1541.00 399.00,1541.00
             399.00,1541.00 398.00,1538.00 398.00,1538.00
             401.55,1537.33 405.52,1537.03 407.00,1541.00
             410.49,1541.29 411.01,1541.03 413.00,1544.00
             413.00,1544.00 416.00,1543.00 416.00,1543.00
             416.00,1543.00 423.00,1551.00 423.00,1551.00
             427.33,1550.87 427.60,1551.40 431.00,1554.00
             437.77,1550.86 438.62,1556.25 440.65,1561.04
             444.14,1569.24 445.19,1573.49 447.24,1581.99
             447.24,1581.99 449.00,1588.00 449.00,1588.00
             454.89,1594.31 449.43,1596.87 456.00,1601.00
             453.25,1605.29 455.53,1607.14 458.00,1611.00
             458.00,1611.00 455.00,1612.00 455.00,1612.00
             455.00,1612.00 463.20,1632.17 463.20,1632.17
             463.20,1632.17 472.00,1654.00 472.00,1654.00
             475.30,1656.13 475.24,1657.24 475.00,1661.00
             475.00,1661.00 478.48,1668.54 478.48,1668.54
             478.48,1668.54 482.00,1674.17 482.00,1674.17
             482.00,1674.17 489.00,1692.00 489.00,1692.00
             489.00,1692.00 491.00,1692.00 491.00,1692.00
             491.00,1692.00 491.00,1691.00 491.00,1691.00
             492.16,1695.55 492.22,1699.33 497.00,1701.00
             497.00,1701.00 498.00,1710.00 498.00,1710.00
             504.67,1716.18 503.57,1717.81 506.69,1724.83
             508.47,1728.84 509.45,1727.87 510.00,1733.00
             510.00,1733.00 512.00,1734.00 512.00,1734.00
             512.00,1734.00 512.00,1735.00 512.00,1735.00
             512.00,1735.00 515.00,1734.00 515.00,1734.00
             515.63,1739.49 517.27,1746.00 523.00,1748.00
             523.00,1748.00 525.00,1756.00 525.00,1756.00
             525.00,1756.00 528.00,1755.00 528.00,1755.00
             528.00,1755.00 528.00,1760.00 528.00,1760.00
             528.00,1760.00 530.82,1759.00 530.82,1759.00
             530.68,1760.43 530.25,1761.12 530.82,1762.72
             531.02,1764.34 532.84,1766.43 533.72,1768.03
             536.90,1773.83 537.97,1777.99 544.06,1782.00
             544.06,1782.00 544.06,1785.91 544.06,1785.91
             544.06,1785.91 553.30,1796.41 553.30,1796.41
             553.30,1796.41 557.00,1798.00 557.00,1798.00
             557.00,1798.00 554.00,1799.00 554.00,1799.00
             554.00,1799.00 560.20,1806.27 560.20,1806.27
             560.20,1806.27 565.30,1813.83 565.30,1813.83
             565.30,1813.83 570.00,1821.00 570.00,1821.00
             570.00,1821.00 579.58,1831.71 579.58,1831.71
             579.58,1831.71 588.32,1841.27 588.32,1841.27
             588.32,1841.27 600.00,1855.00 600.00,1855.00
             600.00,1855.00 602.00,1854.00 602.00,1854.00
             602.00,1854.00 608.00,1866.00 608.00,1866.00
             608.00,1866.00 616.00,1868.00 616.00,1868.00
             616.00,1868.00 614.00,1871.00 614.00,1871.00
             614.00,1871.00 627.00,1881.00 627.00,1881.00
             627.00,1881.00 627.00,1885.00 627.00,1885.00
             627.00,1885.00 632.00,1884.00 632.00,1884.00
             632.00,1884.00 631.00,1887.00 631.00,1887.00
             631.00,1887.00 637.04,1893.68 637.04,1893.68
             637.04,1893.68 647.83,1902.61 647.83,1902.61
             650.87,1905.06 654.86,1907.16 656.00,1911.00
             664.60,1915.19 666.33,1919.72 672.45,1924.50
             672.45,1924.50 680.78,1929.68 680.78,1929.68
             684.96,1932.97 688.54,1937.11 694.00,1938.00
             695.51,1942.23 696.12,1940.50 699.08,1942.80
             703.60,1946.29 702.91,1949.26 710.00,1948.00
             710.00,1948.00 710.00,1951.00 710.00,1951.00
             710.00,1951.00 716.00,1952.00 716.00,1952.00
             716.00,1952.00 722.00,1961.00 722.00,1961.00
             728.97,1961.57 726.66,1962.83 731.26,1965.62
             731.26,1965.62 751.00,1976.00 751.00,1976.00
             751.00,1976.00 751.00,1980.00 751.00,1980.00
             758.53,1979.06 757.75,1981.33 764.00,1983.00
             764.00,1983.00 764.00,1987.00 764.00,1987.00
             764.00,1987.00 768.00,1986.00 768.00,1986.00
             771.25,1991.58 781.67,1994.13 787.51,1997.25
             787.51,1997.25 792.18,2000.37 792.18,2000.37
             792.18,2000.37 800.34,2003.43 800.34,2003.43
             800.34,2003.43 806.09,2007.25 806.09,2007.25
             806.09,2007.25 817.00,2012.64 817.00,2012.64
             817.00,2012.64 830.72,2017.82 830.72,2017.82
             830.72,2017.82 837.01,2021.32 837.01,2021.32
             844.33,2024.53 855.50,2026.18 861.00,2032.00
             861.00,2032.00 870.00,2032.00 870.00,2032.00
             870.00,2032.00 869.00,2035.00 869.00,2035.00
             874.07,2034.56 876.38,2035.42 880.00,2039.00
             886.70,2035.86 883.77,2042.21 896.00,2040.00
             896.00,2040.00 901.00,2046.00 901.00,2046.00
             909.07,2045.49 909.86,2048.03 917.00,2050.54
             922.66,2052.52 928.20,2053.20 934.00,2054.33
             939.46,2055.40 939.16,2057.30 945.00,2055.00
             945.00,2055.00 946.00,2058.00 946.00,2058.00
             946.00,2058.00 956.28,2061.50 956.28,2061.50
             956.28,2061.50 961.46,2063.00 961.46,2063.00
             961.46,2063.00 963.00,2065.00 963.00,2065.00
             963.00,2065.00 969.00,2064.00 969.00,2064.00
             969.00,2064.00 978.00,2069.00 978.00,2069.00
             986.81,2067.97 986.84,2069.54 994.00,2070.67
             999.28,2071.51 999.17,2069.60 1004.00,2073.00
             1008.46,2071.50 1011.66,2072.86 1015.00,2076.00
             1015.00,2076.00 1021.00,2074.00 1021.00,2074.00
             1021.00,2074.00 1021.00,2077.00 1021.00,2077.00
             1032.97,2072.75 1033.80,2079.29 1044.00,2076.00
             1045.39,2079.53 1046.72,2079.72 1050.00,2078.00
             1050.00,2078.00 1054.00,2080.00 1054.00,2080.00
             1054.00,2080.00 1055.00,2077.00 1055.00,2077.00
             1064.27,2084.01 1063.03,2080.72 1073.00,2081.27
             1073.00,2081.27 1079.99,2082.39 1079.99,2082.39
             1079.99,2082.39 1085.42,2081.28 1085.42,2081.28
             1087.60,2081.33 1089.21,2082.87 1092.00,2083.07
             1095.90,2083.35 1097.68,2081.12 1106.00,2085.00
             1106.00,2085.00 1125.00,2082.00 1125.00,2082.00
             1125.00,2082.00 1126.00,2085.00 1126.00,2085.00
             1126.00,2085.00 1131.00,2084.00 1131.00,2084.00
             1131.00,2084.00 1130.00,2085.00 1130.00,2085.00
             1130.00,2085.00 1131.00,2087.00 1131.00,2087.00
             1131.00,2087.00 1146.00,2083.00 1146.00,2083.00
             1146.91,2085.54 1149.50,2085.11 1152.00,2085.35
             1157.89,2085.91 1165.03,2086.72 1170.00,2083.00
             1175.95,2086.12 1179.78,2084.89 1186.00,2084.80
             1187.65,2084.78 1189.86,2085.47 1191.22,2084.80
             1192.22,2084.30 1192.52,2083.54 1193.00,2083.00
             1193.00,2083.00 1194.00,2086.00 1194.00,2086.00
             1194.00,2086.00 1198.00,2086.00 1198.00,2086.00
             1198.00,2086.00 1198.00,2083.00 1198.00,2083.00
             1201.16,2085.22 1203.93,2085.53 1207.00,2083.00
             1207.00,2083.00 1216.00,2085.00 1216.00,2085.00
             1216.00,2085.00 1219.00,2082.00 1219.00,2082.00
             1219.00,2082.00 1218.00,2084.00 1218.00,2084.00
             1218.00,2084.00 1217.00,2084.00 1217.00,2084.00
             1217.00,2084.00 1224.00,2087.00 1224.00,2087.00
             1225.95,2084.39 1226.07,2084.84 1229.00,2086.00
             1233.04,2084.45 1236.44,2084.38 1240.00,2087.00
             1240.00,2087.00 1244.00,2083.00 1244.00,2083.00
             1244.00,2083.00 1245.00,2087.00 1245.00,2087.00
             1253.13,2083.57 1260.73,2085.73 1269.00,2087.00
             1270.71,2082.75 1278.15,2087.74 1281.00,2089.00
             1284.70,2085.45 1287.57,2085.87 1292.00,2088.00
             1292.00,2088.00 1293.00,2085.00 1293.00,2085.00
             1296.94,2086.84 1300.05,2089.26 1303.00,2085.00
             1305.97,2085.97 1308.52,2087.34 1311.00,2085.00
             1311.00,2085.00 1328.00,2088.00 1328.00,2088.00
             1328.00,2088.00 1326.00,2085.89 1326.00,2085.89
             1326.00,2085.89 1336.43,2085.89 1336.43,2085.89
             1336.43,2085.89 1344.58,2085.13 1344.58,2085.13
             1344.58,2085.13 1350.00,2086.78 1350.00,2086.78
             1350.00,2086.78 1356.00,2086.78 1356.00,2086.78
             1356.00,2086.78 1358.00,2082.00 1358.00,2082.00
             1358.00,2082.00 1360.00,2084.00 1360.00,2084.00
             1360.00,2084.00 1361.00,2084.00 1361.00,2084.00
             1364.28,2081.20 1365.28,2082.59 1369.00,2084.00
             1369.00,2084.00 1368.00,2082.00 1368.00,2082.00
             1368.00,2082.00 1373.00,2083.00 1373.00,2083.00
             1373.00,2083.00 1370.00,2082.00 1370.00,2082.00
             1370.00,2082.00 1377.00,2079.00 1377.00,2079.00
             1377.00,2079.00 1379.00,2079.00 1379.00,2079.00
             1379.00,2079.00 1382.00,2084.00 1382.00,2084.00
             1382.00,2084.00 1383.00,2079.00 1383.00,2079.00
             1383.00,2079.00 1399.00,2078.25 1399.00,2078.25
             1401.59,2078.32 1403.14,2078.57 1404.00,2076.00
             1412.27,2077.65 1411.77,2075.71 1419.00,2074.05
             1419.00,2074.05 1431.00,2071.00 1431.00,2071.00
             1431.00,2071.00 1428.00,2074.00 1428.00,2074.00
             1428.00,2074.00 1444.00,2072.00 1444.00,2072.00
             1444.00,2072.00 1444.00,2068.00 1444.00,2068.00
             1444.00,2068.00 1447.00,2069.00 1447.00,2069.00
             1447.00,2069.00 1454.00,2066.00 1454.00,2066.00
             1458.59,2070.55 1464.78,2064.06 1468.00,2061.00
             1468.00,2061.00 1467.00,2064.00 1467.00,2064.00
             1467.00,2064.00 1478.00,2062.00 1478.00,2062.00
             1478.00,2062.00 1477.00,2060.00 1477.00,2060.00
             1482.03,2060.48 1486.96,2060.38 1489.00,2055.00
             1489.00,2055.00 1500.00,2053.00 1500.00,2053.00
             1500.00,2053.00 1500.00,2051.00 1500.00,2051.00
             1500.00,2051.00 1504.00,2053.00 1504.00,2053.00
             1504.00,2053.00 1503.00,2051.00 1503.00,2051.00
             1503.00,2051.00 1508.00,2052.00 1508.00,2052.00
             1508.00,2052.00 1508.00,2051.00 1508.00,2051.00
             1508.00,2051.00 1506.00,2049.00 1506.00,2049.00
             1506.00,2049.00 1511.00,2051.00 1511.00,2051.00
             1511.00,2051.00 1520.00,2048.00 1520.00,2048.00
             1520.00,2048.00 1519.00,2045.00 1519.00,2045.00
             1519.00,2045.00 1526.00,2042.00 1526.00,2042.00
             1526.00,2042.00 1532.00,2044.00 1532.00,2044.00
             1532.00,2044.00 1532.00,2041.00 1532.00,2041.00
             1534.96,2042.01 1534.88,2042.35 1537.00,2040.00
             1537.00,2040.00 1535.00,2041.00 1535.00,2041.00
             1537.80,2038.29 1538.13,2038.26 1542.00,2038.00
             1542.00,2038.00 1547.00,2032.00 1547.00,2032.00
             1549.42,2032.57 1551.98,2033.79 1553.00,2031.00
             1553.00,2031.00 1557.00,2033.00 1557.00,2033.00
             1557.00,2033.00 1559.00,2028.00 1559.00,2028.00
             1559.00,2028.00 1563.00,2029.00 1563.00,2029.00
             1565.01,2025.79 1575.21,2020.51 1579.00,2019.92
             1580.69,2019.55 1582.32,2019.81 1584.00,2019.92
             1584.00,2019.92 1583.00,2017.00 1583.00,2017.00
             1591.14,2015.08 1594.43,2014.51 1601.00,2009.00
             1601.00,2009.00 1601.00,2012.00 1601.00,2012.00
             1604.70,2010.11 1605.76,2008.98 1607.00,2005.00
             1607.00,2005.00 1614.00,2005.00 1614.00,2005.00
             1614.00,2005.00 1613.00,2003.00 1613.00,2003.00
             1613.00,2003.00 1616.00,2004.00 1616.00,2004.00
             1616.00,2004.00 1621.00,1997.00 1621.00,1997.00
             1621.00,1997.00 1629.00,1996.00 1629.00,1996.00
             1629.00,1996.00 1631.00,1994.00 1631.00,1994.00
             1631.00,1994.00 1630.00,1997.00 1630.00,1997.00
             1630.00,1997.00 1631.00,1992.00 1631.00,1992.00
             1634.54,1992.75 1635.95,1993.07 1636.00,1989.00
             1636.00,1989.00 1641.00,1989.00 1641.00,1989.00
             1643.33,1985.27 1646.10,1984.84 1650.00,1983.00
             1650.00,1983.00 1650.00,1982.00 1650.00,1982.00
             1650.00,1982.00 1648.00,1982.00 1648.00,1982.00
             1648.00,1982.00 1657.00,1979.00 1657.00,1979.00
             1657.00,1979.00 1668.00,1970.00 1668.00,1970.00
             1668.00,1970.00 1671.00,1971.00 1671.00,1971.00
             1673.85,1966.53 1675.52,1964.81 1681.00,1965.00
             1681.00,1965.00 1679.00,1963.00 1679.00,1963.00
             1679.00,1963.00 1683.00,1963.00 1683.00,1963.00
             1683.00,1963.00 1683.00,1959.00 1683.00,1959.00
             1683.00,1959.00 1686.00,1960.00 1686.00,1960.00
             1686.00,1960.00 1685.00,1958.00 1685.00,1958.00
             1685.00,1958.00 1688.00,1959.00 1688.00,1959.00
             1688.00,1959.00 1711.00,1940.00 1711.00,1940.00
             1711.00,1940.00 1716.00,1941.00 1716.00,1941.00
             1716.18,1938.94 1716.32,1935.64 1719.00,1936.00
             1723.22,1931.14 1725.27,1928.92 1732.00,1928.00
             1732.00,1928.00 1731.00,1925.00 1731.00,1925.00
             1736.37,1922.41 1738.59,1921.63 1741.00,1916.00
             1748.59,1915.60 1747.28,1907.04 1757.00,1907.00
             1759.01,1902.30 1760.55,1899.28 1766.00,1899.00
             1766.00,1899.00 1764.00,1895.00 1764.00,1895.00
             1773.30,1892.68 1783.36,1878.77 1790.40,1871.80
             1793.03,1869.21 1796.49,1865.01 1800.00,1864.00
             1800.00,1864.00 1808.44,1852.46 1808.44,1852.46
             1808.44,1852.46 1812.26,1849.49 1812.26,1849.49
             1812.26,1849.49 1822.00,1841.00 1822.00,1841.00
             1822.00,1841.00 1824.00,1838.00 1824.00,1838.00
             1824.00,1838.00 1823.00,1834.00 1823.00,1834.00
             1830.32,1830.23 1836.56,1819.43 1841.53,1813.05
             1841.53,1813.05 1846.15,1808.12 1846.15,1808.12
             1846.15,1808.12 1854.47,1797.09 1854.47,1797.09
             1854.47,1797.09 1860.55,1790.54 1860.55,1790.54
             1860.55,1790.54 1866.24,1782.83 1866.24,1782.83
             1870.76,1776.85 1873.26,1768.75 1880.00,1765.00
             1880.00,1765.00 1879.00,1762.00 1879.00,1762.00
             1879.00,1762.00 1881.00,1763.00 1881.00,1763.00
             1881.00,1763.00 1880.00,1760.00 1880.00,1760.00
             1880.00,1760.00 1882.00,1756.00 1882.00,1756.00
             1882.00,1756.00 1884.00,1757.00 1884.00,1757.00
             1884.00,1757.00 1897.97,1731.00 1897.97,1731.00
             1897.97,1731.00 1902.31,1722.82 1902.31,1722.82
             1902.31,1722.82 1903.00,1722.82 1903.00,1722.82
             1903.00,1722.82 1912.00,1708.00 1912.00,1708.00
             1912.00,1708.00 1913.00,1705.00 1913.00,1705.00
             1913.82,1693.57 1926.32,1680.81 1926.00,1669.00
             1926.00,1669.00 1928.00,1670.00 1928.00,1670.00
             1928.31,1664.18 1931.84,1659.49 1933.37,1654.00
             1933.37,1654.00 1938.33,1639.00 1938.33,1639.00
             1938.33,1639.00 1940.51,1630.00 1940.51,1630.00
             1940.51,1630.00 1948.14,1606.01 1948.14,1606.01
             1948.14,1606.01 1949.21,1598.00 1949.21,1598.00
             1949.21,1598.00 1953.19,1586.91 1953.19,1586.91
             1953.19,1586.91 1959.03,1561.00 1959.03,1561.00
             1959.03,1561.00 1959.98,1553.00 1959.98,1553.00
             1959.98,1553.00 1964.12,1529.01 1964.12,1529.01
             1964.12,1529.01 1964.12,1523.58 1964.12,1523.58
             1964.12,1523.58 1967.44,1508.13 1967.44,1508.13
             1967.44,1508.13 1967.94,1496.42 1967.94,1496.42
             1967.94,1496.42 1969.22,1489.00 1969.22,1489.00
             1969.22,1489.00 1969.22,1482.00 1969.22,1482.00
             1969.22,1482.00 1970.95,1458.00 1970.95,1458.00
             1970.87,1453.77 1970.95,1446.63 1973.00,1443.00
             1971.87,1437.13 1969.95,1426.26 1973.00,1421.00
             1970.81,1415.30 1972.32,1408.97 1971.91,1403.00
             1971.91,1403.00 1971.00,1390.00 1971.00,1390.00
             1970.99,1380.45 1970.21,1364.02 1968.40,1355.00
             1968.40,1355.00 1966.91,1347.00 1966.91,1347.00
             1966.61,1341.33 1969.09,1342.95 1965.00,1338.00
             1965.00,1338.00 1968.00,1339.00 1968.00,1339.00
             1968.00,1339.00 1965.00,1336.00 1965.00,1336.00
             1965.00,1336.00 1967.00,1332.00 1967.00,1332.00
             1962.18,1326.98 1964.72,1318.36 1965.00,1312.00
             1965.00,1312.00 1963.00,1316.00 1963.00,1316.00
             1963.00,1316.00 1963.00,1313.00 1963.00,1313.00
             1963.00,1313.00 1961.00,1314.00 1961.00,1314.00
             1963.08,1305.41 1960.99,1306.95 1959.94,1301.23
             1959.94,1301.23 1958.36,1285.00 1958.36,1285.00
             1958.36,1283.45 1958.68,1282.46 1959.00,1281.00
             1957.24,1280.02 1955.37,1279.32 1958.00,1278.00
             1958.00,1278.00 1956.00,1273.00 1956.00,1273.00
             1956.00,1273.00 1954.00,1274.00 1954.00,1274.00
             1954.00,1274.00 1949.00,1248.00 1949.00,1248.00
             1946.66,1245.42 1944.44,1240.46 1945.00,1237.00
             1945.00,1237.00 1945.00,1235.00 1945.00,1235.00
             1942.67,1232.08 1940.73,1224.80 1939.42,1221.00
             1939.42,1221.00 1934.41,1208.00 1934.41,1208.00
             1933.20,1204.08 1930.06,1195.54 1927.00,1193.00
             1927.00,1193.00 1925.00,1181.00 1925.00,1181.00
             1925.00,1181.00 1920.00,1170.00 1920.00,1170.00
             1917.27,1169.07 1917.83,1167.60 1918.00,1165.00
             1912.92,1158.89 1915.80,1155.41 1909.00,1151.00
             1909.00,1151.00 1911.00,1148.00 1911.00,1148.00
             1911.00,1148.00 1908.00,1149.00 1908.00,1149.00
             1908.00,1149.00 1908.00,1147.00 1908.00,1147.00
             1908.00,1147.00 1907.00,1147.00 1907.00,1147.00
             1907.00,1147.00 1909.00,1145.00 1909.00,1145.00
             1909.00,1145.00 1905.00,1144.00 1905.00,1144.00
             1905.00,1144.00 1903.00,1133.00 1903.00,1133.00
             1899.93,1131.87 1900.25,1128.96 1900.00,1126.00
             1900.00,1126.00 1897.00,1126.00 1897.00,1126.00
             1897.00,1126.00 1895.00,1117.00 1895.00,1117.00
             1891.02,1115.78 1890.97,1112.72 1891.00,1109.00
             1885.95,1106.09 1881.07,1096.61 1880.00,1091.00
             1872.47,1088.54 1873.12,1069.57 1864.00,1069.00
             1860.26,1057.49 1849.76,1047.91 1849.17,1041.00
             1848.62,1034.59 1852.68,1025.98 1854.76,1020.00
             1854.76,1020.00 1859.13,1003.00 1859.13,1003.00
             1859.13,1003.00 1861.52,995.75 1861.52,995.75
             1861.52,995.75 1865.93,972.42 1865.93,972.42
             1865.93,972.42 1867.32,966.99 1867.32,966.99
             1867.32,966.99 1867.32,958.00 1867.32,958.00
             1867.32,958.00 1869.80,944.00 1869.80,944.00
             1869.80,944.00 1870.52,937.00 1870.52,937.00
             1870.52,937.00 1872.80,928.00 1872.80,928.00
             1873.53,920.57 1871.89,913.23 1871.12,905.91
             1870.66,899.43 1872.88,897.07 1871.12,890.00
             1871.12,890.00 1867.00,892.00 1867.00,892.00
             1867.00,892.00 1868.00,883.00 1868.00,883.00
             1868.00,883.00 1872.00,889.00 1872.00,889.00
             1872.00,889.00 1871.24,874.00 1871.24,874.00
             1871.24,874.00 1871.24,862.00 1871.24,862.00
             1871.24,862.00 1868.27,848.42 1868.27,848.42
             1868.27,848.42 1867.00,829.00 1867.00,829.00
             1860.19,824.53 1862.00,815.69 1861.74,809.00
             1861.74,809.00 1860.15,797.96 1860.15,797.96
             1860.15,797.96 1857.49,789.00 1857.49,789.00
             1857.49,789.00 1853.23,772.00 1853.23,772.00
             1853.23,772.00 1841.91,743.00 1841.91,743.00
             1841.91,743.00 1834.68,725.91 1834.68,725.91
             1832.20,720.60 1829.30,718.20 1829.00,712.00
             1829.00,712.00 1819.00,697.00 1819.00,697.00
             1819.17,692.57 1818.31,691.73 1814.00,691.00
             1814.00,691.00 1815.00,687.00 1815.00,687.00
             1815.00,687.00 1813.00,682.00 1813.00,682.00
             1808.35,679.28 1808.93,676.97 1806.33,672.72
             1803.94,668.80 1800.31,665.68 1800.00,661.00
             1795.32,659.63 1790.82,651.43 1789.00,647.00
             1789.00,647.00 1787.00,648.00 1787.00,648.00
             1787.00,648.00 1775.00,628.00 1775.00,628.00
             1775.00,628.00 1766.00,622.00 1766.00,622.00
             1766.00,622.00 1760.00,610.00 1760.00,610.00
             1756.30,609.25 1752.39,603.67 1752.00,600.00
             1752.00,600.00 1743.00,596.00 1743.00,596.00
             1743.00,596.00 1745.00,593.00 1745.00,593.00
             1740.70,589.03 1735.57,586.52 1733.00,581.00
             1729.35,579.94 1728.30,577.64 1728.00,574.00
             1728.00,574.00 1725.00,576.00 1725.00,576.00
             1725.00,576.00 1725.00,573.00 1725.00,573.00
             1725.00,573.00 1722.00,574.00 1722.00,574.00
             1720.48,569.35 1710.33,560.52 1706.13,557.19
             1702.19,554.07 1698.46,552.40 1698.00,547.00
             1698.00,547.00 1693.00,547.00 1693.00,547.00
             1692.33,545.63 1692.28,545.23 1691.15,544.03
             1691.15,544.03 1674.28,530.56 1674.28,530.56
             1670.32,528.03 1664.48,524.65 1663.00,520.00
             1658.68,519.31 1651.06,513.17 1648.00,510.00
             1648.00,510.00 1645.00,511.00 1645.00,511.00
             1641.64,505.51 1634.05,500.93 1628.00,499.00
             1628.00,499.00 1629.00,495.00 1629.00,495.00
             1629.00,495.00 1627.00,497.00 1627.00,497.00
             1627.00,497.00 1620.80,494.02 1620.80,494.02
             1620.80,494.02 1595.00,480.00 1595.00,480.00
             1595.00,480.00 1596.00,478.00 1596.00,478.00
             1596.00,478.00 1595.00,476.94 1595.00,476.94
             1593.43,477.08 1592.30,477.23 1590.71,476.94
             1587.64,476.17 1577.13,471.66 1576.00,469.00
             1576.00,469.00 1568.00,469.00 1568.00,469.00
             1565.61,465.19 1563.89,465.63 1560.00,464.00
             1554.74,461.78 1544.03,458.14 1540.00,455.00
             1540.00,455.00 1512.00,447.00 1512.00,447.00
             1512.00,447.00 1514.00,446.00 1514.00,446.00
             1514.00,446.00 1507.00,444.00 1507.00,444.00
             1503.67,444.09 1503.51,444.25 1501.00,442.00
             1501.00,442.00 1485.00,440.00 1485.00,440.00
             1481.44,434.50 1465.50,432.41 1459.00,431.00
             1459.00,431.00 1461.00,428.00 1461.00,428.00
             1455.35,430.03 1447.87,429.99 1443.00,426.00
             1439.38,426.18 1438.85,426.37 1436.00,424.00
             1429.94,425.19 1423.95,422.95 1418.00,421.78
             1418.00,421.78 1410.00,421.09 1410.00,421.09
             1410.00,421.09 1403.00,419.63 1403.00,419.63
             1403.00,419.63 1392.00,418.73 1392.00,418.73
             1392.00,418.73 1380.99,417.10 1380.99,417.10
             1380.99,417.10 1342.00,415.11 1342.00,415.11
             1338.26,414.95 1325.50,416.30 1324.00,413.00
             1315.92,416.03 1310.37,414.82 1302.00,415.17
             1298.99,415.29 1296.03,416.13 1293.00,415.78
             1293.00,415.78 1285.00,414.00 1285.00,414.00
             1285.00,414.00 1288.00,415.00 1288.00,415.00
             1288.00,415.00 1276.00,417.01 1276.00,417.01
             1276.00,417.01 1269.01,417.01 1269.01,417.01
             1269.01,417.01 1240.04,420.88 1240.04,420.88
             1240.04,420.88 1226.00,422.59 1226.00,422.59
             1226.00,422.59 1217.00,424.72 1217.00,424.72
             1217.00,424.72 1204.00,427.17 1204.00,427.17
             1204.00,427.17 1194.00,430.34 1194.00,430.34
             1194.00,430.34 1163.00,437.33 1163.00,437.33
             1163.00,437.33 1153.00,439.75 1153.00,439.75
             1153.00,439.75 1133.00,444.41 1133.00,444.41
             1133.00,444.41 1126.00,445.79 1126.00,445.79
             1126.00,445.79 1119.00,448.21 1119.00,448.21
             1114.97,449.31 1107.68,449.94 1106.00,454.00
             1097.49,453.74 1085.16,462.18 1077.72,466.46
             1074.15,468.51 1070.04,468.91 1069.00,473.00
             1069.00,473.00 1065.00,471.00 1065.00,471.00
             1065.00,471.00 1060.00,477.00 1060.00,477.00
             1060.00,477.00 1058.00,462.00 1058.00,462.00
             1058.00,462.00 1060.00,463.00 1060.00,463.00
             1060.00,463.00 1061.00,462.00 1061.00,462.00
             1056.66,457.59 1058.38,457.11 1059.00,450.00
             1059.00,450.00 1058.00,454.00 1058.00,454.00
             1055.98,446.95 1056.52,440.89 1055.65,434.00
             1055.65,434.00 1054.01,426.00 1054.01,426.00
             1053.28,421.46 1053.22,416.25 1048.00,415.00
             1046.17,409.48 1044.23,411.27 1040.00,408.00
             1033.08,410.55 1028.40,404.01 1022.00,403.00
             1021.56,391.55 1021.50,387.52 1023.27,376.00
             1024.56,367.69 1026.69,352.97 1024.88,345.00
             1023.92,340.79 1021.72,338.79 1020.00,335.00
             1016.37,335.24 1002.28,334.80 1000.00,333.00
             994.88,334.75 988.36,334.31 983.00,333.54
             979.98,333.10 977.49,330.90 975.00,333.00
             967.70,317.72 973.60,309.56 978.21,295.00
             978.21,295.00 982.89,279.00 982.89,279.00
             988.85,261.20 995.02,243.58 997.47,224.85
             997.47,224.85 999.77,205.00 999.77,205.00
             999.60,199.35 997.10,188.60 999.77,184.00
             997.30,179.15 997.14,170.61 997.00,165.00
             997.00,165.00 996.00,158.00 996.00,158.00
             992.91,153.89 992.34,146.12 990.55,141.00
             990.55,141.00 987.67,135.00 987.67,135.00
             986.03,131.49 986.78,129.55 983.00,128.00
             983.00,128.00 984.00,124.00 984.00,124.00
             980.47,120.35 979.88,117.92 979.00,113.00
             975.41,111.20 972.59,109.32 974.00,105.00
             974.00,105.00 969.00,97.00 969.00,97.00
             969.00,97.00 968.00,97.00 968.00,97.00
             968.00,97.00 968.00,99.00 968.00,99.00
             968.00,99.00 968.00,95.00 968.00,95.00
             968.00,95.00 962.00,92.00 962.00,92.00
             962.00,92.00 963.00,89.00 963.00,89.00
             959.57,85.92 959.67,85.04 955.00,84.00
             954.41,80.53 954.55,79.80 951.00,79.00
             949.53,74.77 946.59,71.21 943.11,68.40
             940.85,66.57 938.03,65.76 937.00,63.00
             937.00,63.00 934.00,61.00 934.00,61.00
             934.00,61.00 932.00,62.00 932.00,62.00
             927.88,56.56 911.73,49.82 905.00,51.00
             905.00,51.00 903.00,46.89 903.00,46.89
             903.00,46.89 894.04,46.89 894.04,46.89
             894.04,46.89 888.00,46.89 888.00,46.89
             888.00,46.89 891.00,46.00 891.00,46.00
             891.00,46.00 883.00,44.00 883.00,44.00
             883.00,44.00 852.04,48.46 852.04,48.46
             845.53,49.98 844.74,53.39 837.00,53.00 Z
           M 53.00,53.00
           C 53.00,53.00 53.00,54.00 53.00,54.00
             53.00,54.00 54.00,53.00 54.00,53.00
             54.00,53.00 53.00,53.00 53.00,53.00 Z
           M 982.00,117.00
           C 982.00,117.00 982.00,118.00 982.00,118.00
             982.00,118.00 983.00,117.00 983.00,117.00
             983.00,117.00 982.00,117.00 982.00,117.00 Z
           M 72.00,147.00
           C 72.00,147.00 72.00,148.00 72.00,148.00
             72.00,148.00 73.00,147.00 73.00,147.00
             73.00,147.00 72.00,147.00 72.00,147.00 Z
           M 983.00,332.00
           C 983.00,332.00 983.00,333.00 983.00,333.00
             983.00,333.00 984.00,332.00 984.00,332.00
             984.00,332.00 983.00,332.00 983.00,332.00 Z
           M 821.00,373.00
           C 821.00,373.00 821.00,374.00 821.00,374.00
             821.00,374.00 822.00,373.00 822.00,373.00
             822.00,373.00 821.00,373.00 821.00,373.00 Z
           M 1022.00,393.00
           C 1022.00,393.00 1022.00,394.00 1022.00,394.00
             1022.00,394.00 1023.00,393.00 1023.00,393.00
             1023.00,393.00 1022.00,393.00 1022.00,393.00 Z
           M 1035.00,407.00
           C 1035.00,407.00 1035.00,408.00 1035.00,408.00
             1035.00,408.00 1036.00,407.00 1036.00,407.00
             1036.00,407.00 1035.00,407.00 1035.00,407.00 Z
           M 1047.00,407.00
           C 1047.00,407.00 1047.00,408.00 1047.00,408.00
             1047.00,408.00 1048.00,407.00 1048.00,407.00
             1048.00,407.00 1047.00,407.00 1047.00,407.00 Z
           M 1311.00,413.00
           C 1311.00,413.00 1311.00,414.00 1311.00,414.00
             1311.00,414.00 1312.00,413.00 1312.00,413.00
             1312.00,413.00 1311.00,413.00 1311.00,413.00 Z
           M 1431.00,423.00
           C 1431.00,423.00 1431.00,424.00 1431.00,424.00
             1431.00,424.00 1432.00,423.00 1432.00,423.00
             1432.00,423.00 1431.00,423.00 1431.00,423.00 Z
           M 1441.00,424.00
           C 1441.00,424.00 1441.00,425.00 1441.00,425.00
             1441.00,425.00 1442.00,424.00 1442.00,424.00
             1442.00,424.00 1441.00,424.00 1441.00,424.00 Z
           M 1498.00,440.00
           C 1498.00,440.00 1498.00,441.00 1498.00,441.00
             1498.00,441.00 1499.00,440.00 1499.00,440.00
             1499.00,440.00 1498.00,440.00 1498.00,440.00 Z
           M 1535.00,453.00
           C 1535.00,453.00 1535.00,454.00 1535.00,454.00
             1535.00,454.00 1536.00,453.00 1536.00,453.00
             1536.00,453.00 1535.00,453.00 1535.00,453.00 Z
           M 1088.00,458.00
           C 1088.00,458.00 1088.00,459.00 1088.00,459.00
             1088.00,459.00 1089.00,458.00 1089.00,458.00
             1089.00,458.00 1088.00,458.00 1088.00,458.00 Z
           M 1549.00,458.00
           C 1549.00,458.00 1549.00,459.00 1549.00,459.00
             1549.00,459.00 1550.00,458.00 1550.00,458.00
             1550.00,458.00 1549.00,458.00 1549.00,458.00 Z
           M 1616.00,489.00
           C 1616.00,489.00 1616.00,490.00 1616.00,490.00
             1616.00,490.00 1617.00,489.00 1617.00,489.00
             1617.00,489.00 1616.00,489.00 1616.00,489.00 Z
           M 1620.00,492.00
           C 1620.00,492.00 1620.00,493.00 1620.00,493.00
             1620.00,493.00 1621.00,492.00 1621.00,492.00
             1621.00,492.00 1620.00,492.00 1620.00,492.00 Z
           M 1622.00,493.00
           C 1622.00,493.00 1622.00,494.00 1622.00,494.00
             1622.00,494.00 1623.00,493.00 1623.00,493.00
             1623.00,493.00 1622.00,493.00 1622.00,493.00 Z
           M 1637.00,502.00
           C 1637.00,502.00 1637.00,503.00 1637.00,503.00
             1637.00,503.00 1638.00,502.00 1638.00,502.00
             1638.00,502.00 1637.00,502.00 1637.00,502.00 Z
           M 1681.00,535.00
           C 1681.00,535.00 1681.00,536.00 1681.00,536.00
             1681.00,536.00 1682.00,535.00 1682.00,535.00
             1682.00,535.00 1681.00,535.00 1681.00,535.00 Z
           M 1711.00,560.00
           C 1711.00,560.00 1711.00,561.00 1711.00,561.00
             1711.00,561.00 1712.00,560.00 1712.00,560.00
             1712.00,560.00 1711.00,560.00 1711.00,560.00 Z
           M 899.00,600.00
           C 899.00,600.00 899.00,601.00 899.00,601.00
             899.00,601.00 900.00,600.00 900.00,600.00
             900.00,600.00 899.00,600.00 899.00,600.00 Z
           M 871.00,640.00
           C 871.00,640.00 871.00,641.00 871.00,641.00
             871.00,641.00 872.00,640.00 872.00,640.00
             872.00,640.00 871.00,640.00 871.00,640.00 Z
           M 1787.00,644.00
           C 1787.00,644.00 1787.00,645.00 1787.00,645.00
             1787.00,645.00 1788.00,644.00 1788.00,644.00
             1788.00,644.00 1787.00,644.00 1787.00,644.00 Z
           M 863.00,653.00
           C 863.00,653.00 863.00,654.00 863.00,654.00
             863.00,654.00 864.00,653.00 864.00,653.00
             864.00,653.00 863.00,653.00 863.00,653.00 Z
           M 841.00,687.00
           C 841.00,687.00 841.00,688.00 841.00,688.00
             841.00,688.00 842.00,687.00 842.00,687.00
             842.00,687.00 841.00,687.00 841.00,687.00 Z
           M 829.00,725.00
           C 829.00,725.00 829.00,726.00 829.00,726.00
             829.00,726.00 830.00,725.00 830.00,725.00
             830.00,725.00 829.00,725.00 829.00,725.00 Z
           M 819.00,760.00
           C 819.00,760.00 819.00,761.00 819.00,761.00
             819.00,761.00 820.00,760.00 820.00,760.00
             820.00,760.00 819.00,760.00 819.00,760.00 Z
           M 74.00,813.00
           C 74.00,813.00 74.00,814.00 74.00,814.00
             74.00,814.00 75.00,813.00 75.00,813.00
             75.00,813.00 74.00,813.00 74.00,813.00 Z
           M 210.00,814.00
           C 210.00,814.00 214.00,815.00 214.00,815.00
             214.00,815.00 210.00,814.00 210.00,814.00 Z
           M 58.00,821.00
           C 58.00,821.00 62.00,822.00 62.00,822.00
             62.00,822.00 58.00,821.00 58.00,821.00 Z
           M 44.00,833.00
           C 44.00,833.00 43.00,837.00 43.00,837.00
             43.00,837.00 47.00,836.00 47.00,836.00
             47.00,836.00 47.00,834.00 47.00,834.00
             47.00,834.00 46.00,833.00 46.00,833.00
             46.00,833.00 44.00,833.00 44.00,833.00 Z
           M 24.00,857.00
           C 24.00,857.00 24.00,858.00 24.00,858.00
             24.00,858.00 25.00,857.00 25.00,857.00
             25.00,857.00 24.00,857.00 24.00,857.00 Z
           M 15.00,868.00
           C 15.00,868.00 15.00,869.00 15.00,869.00
             15.00,869.00 16.00,868.00 16.00,868.00
             16.00,868.00 15.00,868.00 15.00,868.00 Z
           M 13.00,893.00
           C 13.00,893.00 13.00,894.00 13.00,894.00
             13.00,894.00 14.00,893.00 14.00,893.00
             14.00,893.00 13.00,893.00 13.00,893.00 Z
           M 591.00,893.00
           C 591.00,893.00 591.00,894.00 591.00,894.00
             591.00,894.00 592.00,893.00 592.00,893.00
             592.00,893.00 591.00,893.00 591.00,893.00 Z
           M 653.00,896.00
           C 653.00,896.00 653.00,897.00 653.00,897.00
             653.00,897.00 654.00,896.00 654.00,896.00
             654.00,896.00 653.00,896.00 653.00,896.00 Z
           M 275.00,897.00
           C 275.00,897.00 275.00,898.00 275.00,898.00
             275.00,898.00 276.00,897.00 276.00,897.00
             276.00,897.00 275.00,897.00 275.00,897.00 Z
           M 15.00,900.00
           C 15.00,900.00 15.00,901.00 15.00,901.00
             15.00,901.00 16.00,900.00 16.00,900.00
             16.00,900.00 15.00,900.00 15.00,900.00 Z
           M 16.00,903.00
           C 16.00,903.00 16.00,904.00 16.00,904.00
             16.00,904.00 17.00,903.00 17.00,903.00
             17.00,903.00 16.00,903.00 16.00,903.00 Z
           M 16.00,908.00
           C 16.00,908.00 16.00,909.00 16.00,909.00
             16.00,909.00 17.00,908.00 17.00,908.00
             17.00,908.00 16.00,908.00 16.00,908.00 Z
           M 24.00,922.00
           C 24.00,922.00 28.00,919.00 28.00,919.00
             28.00,919.00 24.00,922.00 24.00,922.00 Z
           M 432.00,925.00
           C 432.00,925.00 432.00,926.00 432.00,926.00
             432.00,926.00 433.00,925.00 433.00,925.00
             433.00,925.00 432.00,925.00 432.00,925.00 Z
           M 423.00,931.00
           C 423.00,931.00 423.00,932.00 423.00,932.00
             423.00,932.00 424.00,931.00 424.00,931.00
             424.00,931.00 423.00,931.00 423.00,931.00 Z
           M 34.00,932.00
           C 34.00,932.00 34.00,933.00 34.00,933.00
             34.00,933.00 35.00,932.00 35.00,932.00
             35.00,932.00 34.00,932.00 34.00,932.00 Z
           M 39.00,933.00
           C 39.00,933.00 39.00,934.00 39.00,934.00
             39.00,934.00 40.00,933.00 40.00,933.00
             40.00,933.00 39.00,933.00 39.00,933.00 Z
           M 47.00,939.00
           C 47.00,939.00 47.00,940.00 47.00,940.00
             47.00,940.00 48.00,939.00 48.00,939.00
             48.00,939.00 47.00,939.00 47.00,939.00 Z
           M 387.00,940.00
           C 387.00,940.00 387.00,941.00 387.00,941.00
             387.00,941.00 388.00,940.00 388.00,940.00
             388.00,940.00 387.00,940.00 387.00,940.00 Z
           M 63.00,949.00
           C 63.00,949.00 63.00,950.00 63.00,950.00
             63.00,950.00 64.00,949.00 64.00,949.00
             64.00,949.00 63.00,949.00 63.00,949.00 Z
           M 78.00,957.00
           C 78.00,957.00 82.00,959.00 82.00,959.00
             82.00,959.00 78.00,957.00 78.00,957.00 Z
           M 95.00,957.00
           C 95.00,957.00 95.00,958.00 95.00,958.00
             95.00,958.00 96.00,957.00 96.00,957.00
             96.00,957.00 95.00,957.00 95.00,957.00 Z
           M 115.00,965.00
           C 115.00,965.00 115.00,966.00 115.00,966.00
             115.00,966.00 116.00,965.00 116.00,965.00
             116.00,965.00 115.00,965.00 115.00,965.00 Z
           M 211.00,990.00
           C 211.00,990.00 210.00,993.00 210.00,993.00
             210.00,993.00 216.00,994.00 216.00,994.00
             216.00,994.00 215.00,990.00 215.00,990.00
             215.00,990.00 211.00,990.00 211.00,990.00 Z
           M 176.00,991.00
           C 176.00,991.00 176.00,992.00 176.00,992.00
             176.00,992.00 177.00,991.00 177.00,991.00
             177.00,991.00 176.00,991.00 176.00,991.00 Z
           M 230.00,1006.00
           C 230.00,1006.00 230.00,1007.00 230.00,1007.00
             230.00,1007.00 231.00,1006.00 231.00,1006.00
             231.00,1006.00 230.00,1006.00 230.00,1006.00 Z
           M 242.00,1021.00
           C 242.00,1021.00 242.00,1022.00 242.00,1022.00
             242.00,1022.00 243.00,1021.00 243.00,1021.00
             243.00,1021.00 242.00,1021.00 242.00,1021.00 Z
           M 232.00,1035.00
           C 232.00,1035.00 232.00,1036.00 232.00,1036.00
             232.00,1036.00 233.00,1035.00 233.00,1035.00
             233.00,1035.00 232.00,1035.00 232.00,1035.00 Z
           M 263.00,1049.00
           C 263.00,1049.00 263.00,1050.00 263.00,1050.00
             263.00,1050.00 264.00,1049.00 264.00,1049.00
             264.00,1049.00 263.00,1049.00 263.00,1049.00 Z
           M 1884.00,1095.00
           C 1884.00,1095.00 1884.00,1096.00 1884.00,1096.00
             1884.00,1096.00 1885.00,1095.00 1885.00,1095.00
             1885.00,1095.00 1884.00,1095.00 1884.00,1095.00 Z
           M 1901.00,1128.00
           C 1901.00,1128.00 1901.00,1129.00 1901.00,1129.00
             1901.00,1129.00 1902.00,1128.00 1902.00,1128.00
             1902.00,1128.00 1901.00,1128.00 1901.00,1128.00 Z
           M 213.00,1156.00
           C 213.00,1156.00 216.00,1159.00 216.00,1159.00
             216.00,1159.00 213.00,1156.00 213.00,1156.00 Z
           M 200.00,1180.00
           C 200.00,1180.00 200.00,1181.00 200.00,1181.00
             200.00,1181.00 201.00,1180.00 201.00,1180.00
             201.00,1180.00 200.00,1180.00 200.00,1180.00 Z
           M 1930.00,1196.00
           C 1930.00,1196.00 1930.00,1197.00 1930.00,1197.00
             1930.00,1197.00 1931.00,1196.00 1931.00,1196.00
             1931.00,1196.00 1930.00,1196.00 1930.00,1196.00 Z
           M 1935.00,1205.00
           C 1935.00,1205.00 1935.00,1206.00 1935.00,1206.00
             1935.00,1206.00 1936.00,1205.00 1936.00,1205.00
             1936.00,1205.00 1935.00,1205.00 1935.00,1205.00 Z
           M 199.00,1213.00
           C 199.00,1213.00 199.00,1214.00 199.00,1214.00
             199.00,1214.00 200.00,1213.00 200.00,1213.00
             200.00,1213.00 199.00,1213.00 199.00,1213.00 Z
           M 199.00,1221.00
           C 199.00,1221.00 199.00,1222.00 199.00,1222.00
             199.00,1222.00 200.00,1221.00 200.00,1221.00
             200.00,1221.00 199.00,1221.00 199.00,1221.00 Z
           M 200.00,1233.00
           C 200.00,1233.00 199.00,1237.00 199.00,1237.00
             199.00,1237.00 200.00,1233.00 200.00,1233.00 Z
           M 193.00,1253.00
           C 193.00,1253.00 197.00,1254.00 197.00,1254.00
             197.00,1254.00 193.00,1253.00 193.00,1253.00 Z
           M 199.00,1273.00
           C 199.00,1273.00 199.00,1274.00 199.00,1274.00
             199.00,1274.00 200.00,1273.00 200.00,1273.00
             200.00,1273.00 199.00,1273.00 199.00,1273.00 Z
           M 202.00,1293.00
           C 202.00,1293.00 202.00,1294.00 202.00,1294.00
             202.00,1294.00 203.00,1293.00 203.00,1293.00
             203.00,1293.00 202.00,1293.00 202.00,1293.00 Z
           M 205.00,1308.00
           C 205.00,1308.00 205.00,1309.00 205.00,1309.00
             205.00,1309.00 206.00,1308.00 206.00,1308.00
             206.00,1308.00 205.00,1308.00 205.00,1308.00 Z
           M 208.00,1325.00
           C 208.00,1325.00 208.00,1326.00 208.00,1326.00
             208.00,1326.00 209.00,1325.00 209.00,1325.00
             209.00,1325.00 208.00,1325.00 208.00,1325.00 Z
           M 215.00,1328.00
           C 215.00,1328.00 213.00,1333.00 213.00,1333.00
             215.42,1331.33 215.72,1330.90 215.00,1328.00 Z
           M 207.00,1329.00
           C 207.00,1329.00 207.00,1330.00 207.00,1330.00
             207.00,1330.00 208.00,1329.00 208.00,1329.00
             208.00,1329.00 207.00,1329.00 207.00,1329.00 Z
           M 1965.00,1329.00
           C 1965.00,1329.00 1965.00,1330.00 1965.00,1330.00
             1965.00,1330.00 1966.00,1329.00 1966.00,1329.00
             1966.00,1329.00 1965.00,1329.00 1965.00,1329.00 Z
           M 196.00,1333.00
           C 196.00,1333.00 196.00,1334.00 196.00,1334.00
             196.00,1334.00 197.00,1333.00 197.00,1333.00
             197.00,1333.00 196.00,1333.00 196.00,1333.00 Z
           M 215.00,1334.00
           C 215.00,1334.00 215.00,1335.00 215.00,1335.00
             215.00,1335.00 216.00,1334.00 216.00,1334.00
             216.00,1334.00 215.00,1334.00 215.00,1334.00 Z
           M 214.00,1341.00
           C 214.00,1341.00 212.00,1346.00 212.00,1346.00
             212.00,1346.00 216.00,1341.00 216.00,1341.00
             216.00,1341.00 214.00,1341.00 214.00,1341.00 Z
           M 1967.00,1345.00
           C 1967.00,1345.00 1967.00,1346.00 1967.00,1346.00
             1967.00,1346.00 1968.00,1345.00 1968.00,1345.00
             1968.00,1345.00 1967.00,1345.00 1967.00,1345.00 Z
           M 221.00,1356.00
           C 221.00,1356.00 221.00,1357.00 221.00,1357.00
             221.00,1357.00 222.00,1356.00 222.00,1356.00
             222.00,1356.00 221.00,1356.00 221.00,1356.00 Z
           M 237.00,1389.00
           C 237.00,1389.00 237.00,1397.00 237.00,1397.00
             237.00,1397.00 239.00,1397.00 239.00,1397.00
             239.00,1397.00 239.00,1389.00 239.00,1389.00
             239.00,1389.00 237.00,1389.00 237.00,1389.00 Z
           M 247.00,1413.00
           C 247.00,1413.00 247.00,1414.00 247.00,1414.00
             247.00,1414.00 248.00,1413.00 248.00,1413.00
             248.00,1413.00 247.00,1413.00 247.00,1413.00 Z
           M 284.00,1460.00
           C 284.00,1460.00 284.00,1461.00 284.00,1461.00
             284.00,1461.00 285.00,1460.00 285.00,1460.00
             285.00,1460.00 284.00,1460.00 284.00,1460.00 Z
           M 343.00,1506.00
           C 343.00,1506.00 343.00,1511.00 343.00,1511.00
             343.00,1511.00 346.00,1510.00 346.00,1510.00
             346.00,1510.00 343.00,1506.00 343.00,1506.00 Z
           M 376.00,1525.00
           C 376.00,1525.00 376.00,1526.00 376.00,1526.00
             376.00,1526.00 377.00,1525.00 377.00,1525.00
             377.00,1525.00 376.00,1525.00 376.00,1525.00 Z
           M 384.00,1531.00
           C 384.00,1531.00 389.00,1533.00 389.00,1533.00
             389.00,1533.00 384.00,1531.00 384.00,1531.00 Z
           M 1763.00,1900.00
           C 1763.00,1900.00 1763.00,1901.00 1763.00,1901.00
             1763.00,1901.00 1764.00,1900.00 1764.00,1900.00
             1764.00,1900.00 1763.00,1900.00 1763.00,1900.00 Z
           M 708.00,1950.00
           C 708.00,1950.00 708.00,1951.00 708.00,1951.00
             708.00,1951.00 709.00,1950.00 709.00,1950.00
             709.00,1950.00 708.00,1950.00 708.00,1950.00 Z
           M 713.00,1954.00
           C 713.00,1954.00 713.00,1955.00 713.00,1955.00
             713.00,1955.00 714.00,1954.00 714.00,1954.00
             714.00,1954.00 713.00,1954.00 713.00,1954.00 Z
           M 1685.00,1961.00
           C 1685.00,1961.00 1685.00,1962.00 1685.00,1962.00
             1685.00,1962.00 1686.00,1961.00 1686.00,1961.00
             1686.00,1961.00 1685.00,1961.00 1685.00,1961.00 Z
           M 1663.00,1979.00
           C 1663.00,1979.00 1663.00,1980.00 1663.00,1980.00
             1663.00,1980.00 1664.00,1979.00 1664.00,1979.00
             1664.00,1979.00 1663.00,1979.00 1663.00,1979.00 Z
           M 96.00,1998.00
           C 96.00,1998.00 96.00,1999.00 96.00,1999.00
             96.00,1999.00 97.00,1998.00 97.00,1998.00
             97.00,1998.00 96.00,1998.00 96.00,1998.00 Z
           M 45.00,2010.00
           C 45.00,2010.00 45.00,2011.00 45.00,2011.00
             45.00,2011.00 46.00,2010.00 46.00,2010.00
             46.00,2010.00 45.00,2010.00 45.00,2010.00 Z
           M 1599.00,2012.00
           C 1599.00,2012.00 1599.00,2013.00 1599.00,2013.00
             1599.00,2013.00 1600.00,2012.00 1600.00,2012.00
             1600.00,2012.00 1599.00,2012.00 1599.00,2012.00 Z
           M 140.00,2045.00
           C 140.00,2045.00 140.00,2046.00 140.00,2046.00
             140.00,2046.00 141.00,2045.00 141.00,2045.00
             141.00,2045.00 140.00,2045.00 140.00,2045.00 Z
           M 1387.00,2079.00
           C 1387.00,2079.00 1387.00,2080.00 1387.00,2080.00
             1387.00,2080.00 1388.00,2079.00 1388.00,2079.00
             1388.00,2079.00 1387.00,2079.00 1387.00,2079.00 Z
           M 1363.00,2082.00
           C 1363.00,2082.00 1363.00,2083.00 1363.00,2083.00
             1363.00,2083.00 1364.00,2082.00 1364.00,2082.00
             1364.00,2082.00 1363.00,2082.00 1363.00,2082.00 Z
           M 15.00,2083.00
           C 15.00,2083.00 15.00,2084.00 15.00,2084.00
             15.00,2084.00 16.00,2083.00 16.00,2083.00
             16.00,2083.00 15.00,2083.00 15.00,2083.00 Z
           M 1287.00,2088.00
           C 1287.00,2088.00 1287.00,2089.00 1287.00,2089.00
             1287.00,2089.00 1288.00,2088.00 1288.00,2088.00
             1288.00,2088.00 1287.00,2088.00 1287.00,2088.00 Z
           M 149.00,2100.00
           C 149.00,2100.00 149.00,2101.00 149.00,2101.00
             149.00,2101.00 150.00,2100.00 150.00,2100.00
             150.00,2100.00 149.00,2100.00 149.00,2100.00 Z
           M 237.00,2116.00
           C 237.00,2116.00 237.00,2117.00 237.00,2117.00
             237.00,2117.00 238.00,2116.00 238.00,2116.00
             238.00,2116.00 237.00,2116.00 237.00,2116.00 Z
           M 2070.00,2117.00
           C 2070.00,2117.00 2070.00,2118.00 2070.00,2118.00
             2070.00,2118.00 2071.00,2117.00 2071.00,2117.00
             2071.00,2117.00 2070.00,2117.00 2070.00,2117.00 Z
           M 136.00,2119.00
           C 136.00,2119.00 136.00,2120.00 136.00,2120.00
             136.00,2120.00 137.00,2119.00 137.00,2119.00
             137.00,2119.00 136.00,2119.00 136.00,2119.00 Z
           M 2128.00,2124.00
           C 2128.00,2124.00 2128.00,2125.00 2128.00,2125.00
             2128.00,2125.00 2129.00,2124.00 2129.00,2124.00
             2129.00,2124.00 2128.00,2124.00 2128.00,2124.00 Z
           M 55.00,2139.00
           C 55.00,2139.00 55.00,2140.00 55.00,2140.00
             55.00,2140.00 56.00,2139.00 56.00,2139.00
             56.00,2139.00 55.00,2139.00 55.00,2139.00 Z
           M 29.00,2140.00
           C 29.00,2140.00 29.00,2141.00 29.00,2141.00
             29.00,2141.00 30.00,2140.00 30.00,2140.00
             30.00,2140.00 29.00,2140.00 29.00,2140.00 Z
           M 56.00,2141.00
           C 56.00,2141.00 56.00,2142.00 56.00,2142.00
             56.00,2142.00 57.00,2141.00 57.00,2141.00
             57.00,2141.00 56.00,2141.00 56.00,2141.00 Z
           M 64.00,2149.00
           C 64.00,2149.00 64.00,2150.00 64.00,2150.00
             64.00,2150.00 65.00,2149.00 65.00,2149.00
             65.00,2149.00 64.00,2149.00 64.00,2149.00 Z
           M 67.00,2150.00
           C 67.00,2150.00 75.00,2153.00 75.00,2153.00
             71.92,2150.16 71.10,2150.24 67.00,2150.00 Z
           M 66.00,2153.00
           C 66.00,2153.00 66.00,2154.00 66.00,2154.00
             66.00,2154.00 67.00,2153.00 67.00,2153.00
             67.00,2153.00 66.00,2153.00 66.00,2153.00 Z
           M 176.00,2157.00
           C 176.00,2157.00 176.00,2158.00 176.00,2158.00
             176.00,2158.00 177.00,2157.00 177.00,2157.00
             177.00,2157.00 176.00,2157.00 176.00,2157.00 Z
           M 1248.00,2159.00
           C 1248.00,2159.00 1248.00,2160.00 1248.00,2160.00
             1248.00,2160.00 1249.00,2159.00 1249.00,2159.00
             1249.00,2159.00 1248.00,2159.00 1248.00,2159.00 Z
           M 48.00,2160.00
           C 48.00,2160.00 48.00,2161.00 48.00,2161.00
             48.00,2161.00 49.00,2160.00 49.00,2160.00
             49.00,2160.00 48.00,2160.00 48.00,2160.00 Z
           M 159.00,2161.00
           C 159.00,2161.00 159.00,2162.00 159.00,2162.00
             159.00,2162.00 160.00,2161.00 160.00,2161.00
             160.00,2161.00 159.00,2161.00 159.00,2161.00 Z" />
</svg>
